<?xml version="1.0" encoding="iso-8859-1"?>
<!-- Generator: Adobe Illustrator 27.1.1, SVG Export Plug-In . SVG Version: 6.00 Build 0)  -->
<svg version="1.1" xmlns="http://www.w3.org/2000/svg" xmlns:xlink="http://www.w3.org/1999/xlink" x="0px" y="0px"
	 viewBox="0 0 2834.646 1700.787" style="enable-background:new 0 0 2834.646 1700.787;" xml:space="preserve">
<g id="Layer_1">
	<g>
		<path style="fill:#00AEEF;" d="M1015.667,968.667L1015.667,968.667c-153.72,0-278.334-124.614-278.334-278.333v-0.001
			C737.333,536.614,861.947,412,1015.666,412h0.001C1169.386,412,1294,536.614,1294,690.333v0.001
			C1294,844.053,1169.386,968.667,1015.667,968.667z"/>
		<g>
			<path d="M1015.864,919.29c-12.419,0-24.825-0.832-37.136-2.456c4.386,0.589,8.773,1.179,13.159,1.768
				c-24.36-3.282-48.199-9.758-70.863-19.273c3.942,1.663,7.883,3.327,11.825,4.99c-22.121-9.356-42.959-21.535-61.986-36.191
				c3.339,2.58,6.679,5.16,10.018,7.74c-18.865-14.61-35.819-31.564-50.429-50.429c2.58,3.339,5.16,6.679,7.74,10.018
				c-14.656-19.027-26.835-39.865-36.191-61.986c1.663,3.941,3.327,7.883,4.99,11.825c-9.515-22.664-15.991-46.503-19.273-70.863
				c0.589,4.386,1.179,8.773,1.768,13.159c-3.25-24.636-3.25-49.635,0-74.272c-0.589,4.386-1.179,8.773-1.768,13.159
				c3.282-24.36,9.758-48.199,19.273-70.863c-1.663,3.942-3.327,7.883-4.99,11.825c9.356-22.121,21.535-42.959,36.191-61.986
				c-2.58,3.339-5.16,6.679-7.74,10.018c14.61-18.865,31.564-35.819,50.429-50.429c-3.339,2.58-6.679,5.16-10.018,7.74
				c19.027-14.656,39.865-26.835,61.986-36.191c-3.942,1.663-7.883,3.327-11.825,4.99c22.664-9.515,46.503-15.991,70.863-19.273
				c-4.386,0.589-8.773,1.179-13.159,1.768c24.636-3.25,49.635-3.25,74.272,0c-4.386-0.589-8.773-1.179-13.159-1.768
				c24.36,3.282,48.199,9.758,70.863,19.273c-3.942-1.663-7.883-3.327-11.825-4.99c22.121,9.356,42.959,21.535,61.986,36.191
				c-3.339-2.58-6.679-5.16-10.018-7.74c18.865,14.61,35.819,31.564,50.429,50.429c-2.58-3.339-5.16-6.679-7.74-10.018
				c14.656,19.027,26.835,39.865,36.191,61.986c-1.663-3.942-3.327-7.883-4.99-11.825c9.515,22.664,15.991,46.503,19.273,70.863
				c-0.589-4.386-1.179-8.773-1.768-13.159c3.25,24.636,3.25,49.635,0,74.272c0.589-4.386,1.179-8.773,1.768-13.159
				c-3.282,24.36-9.758,48.199-19.273,70.863c1.663-3.942,3.327-7.883,4.99-11.825c-9.356,22.121-21.535,42.959-36.191,61.986
				c2.58-3.339,5.16-6.679,7.74-10.018c-14.609,18.865-31.564,35.819-50.429,50.429c3.339-2.58,6.679-5.16,10.018-7.74
				c-19.027,14.656-39.865,26.835-61.986,36.191c3.942-1.663,7.883-3.327,11.825-4.99c-22.664,9.515-46.503,15.991-70.863,19.273
				c4.386-0.589,8.773-1.179,13.159-1.768C1040.685,918.459,1028.285,919.273,1015.864,919.29
				c-6.815-0.257-13.172,1.164-19.071,4.263c-6.137,1.996-11.447,5.408-15.93,10.235c-4.827,4.484-8.239,9.794-10.235,15.93
				c-3.099,5.899-4.52,12.256-4.263,19.071c0.573,12.802,4.779,26.079,14.498,35.002c9.677,8.883,21.596,14.517,35.002,14.498
				c19.171-0.027,38.18-2.216,57.102-5.217c14.397-2.283,28.615-5.703,42.473-10.227c17.408-5.682,34.491-12.846,50.828-21.106
				c12.548-6.345,24.612-13.645,36.058-21.811c14.69-10.481,28.984-21.778,41.972-34.335c13.07-12.637,24.373-26.601,35.391-41.037
				c19.727-25.846,34.254-54.882,45.401-85.371c4.982-13.629,8.887-27.65,11.67-41.891c3.638-18.621,6.072-37.676,6.757-56.651
				c0.533-14.778-0.09-29.602-1.884-44.28c-2.292-18.75-5.138-37.28-10.317-55.466c-5.041-17.698-12.001-34.843-19.679-51.544
				c-5.884-12.801-12.747-25.15-20.503-36.911c-9.939-15.071-21.102-29.519-33.168-42.948c-9.427-10.491-19.647-20.267-30.545-29.22
				c-13.983-11.488-28.537-22.422-44.091-31.708c-15.656-9.347-32.18-16.687-49.043-23.581
				c-30.969-12.661-64.074-19.087-97.368-21.577c-14.78-1.105-29.651-1.047-44.421,0.183c-18.785,1.563-37.687,4.254-56.02,8.729
				c-13.906,3.394-27.527,7.883-40.746,13.372c-16.95,7.039-33.514,14.464-49.215,24.01c-15.46,9.399-30.017,20.389-43.892,31.969
				c-10.828,9.037-20.97,18.893-30.314,29.458c-21.292,24.072-39.919,50.882-53.132,80.243
				c-7.562,16.804-14.459,33.916-19.369,51.694c-5.027,18.203-7.849,36.841-9.98,55.587c-3.819,33.605-1.157,67.796,5.588,100.873
				c2.872,14.083,6.843,27.939,11.869,41.404c6.385,17.108,13.737,34.037,22.649,49.998c8.891,15.925,19.546,30.434,30.739,44.805
				c8.672,11.135,18.113,21.644,28.338,31.376c12.994,12.366,27.229,23.566,41.884,33.878c11.603,8.165,23.83,15.443,36.543,21.744
				c29.529,14.636,60.932,25.792,93.588,30.693c18.211,2.733,36.41,4.868,54.839,4.868c6.815,0.257,13.172-1.164,19.071-4.263
				c6.137-1.996,11.447-5.408,15.93-10.235c4.827-4.484,8.239-9.794,10.235-15.93c3.099-5.899,4.52-12.256,4.263-19.071
				c-0.573-12.802-4.779-26.079-14.498-35.002C1041.181,924.898,1029.276,919.29,1015.864,919.29z"/>
		</g>
	</g>
</g>
<g id="Legs">
	<path style="fill:#E6E7E8;stroke:#000000;stroke-width:47.8;stroke-linecap:round;stroke-miterlimit:10;" d="M1137.818,1230.144
		L1137.818,1230.144c-35.565,8.359-71.173-13.696-79.532-49.261l-36.844-156.76c-8.359-35.565,13.696-71.173,49.261-79.532l0,0
		c35.565-8.359,71.173,13.696,79.532,49.261l36.844,156.76C1195.438,1186.177,1173.383,1221.785,1137.818,1230.144z"/>
	<path style="fill:#E6E7E8;stroke:#000000;stroke-width:41.5;stroke-miterlimit:10;" d="M901.182,1238.963L901.182,1238.963
		c-36.534,0-66.151-29.617-66.151-66.151v-161.031c0-36.534,29.617-66.151,66.151-66.151h0c36.534,0,66.151,29.617,66.151,66.151
		v161.031C967.333,1209.346,937.716,1238.963,901.182,1238.963z"/>
</g>
</svg>
